<?xml version="1.0" encoding="utf-8"?>
<!-- Generator: Adobe Illustrator 21.0.0, SVG Export Plug-In . SVG Version: 6.00 Build 0)  -->
<svg version="1.1" id="Layer_1" xmlns="http://www.w3.org/2000/svg" xmlns:xlink="http://www.w3.org/1999/xlink" x="0px" y="0px"
	 viewBox="0 0 200 200" style="enable-background:new 0 0 200 200;" xml:space="preserve">
<style type="text/css">
	.st0{fill:none;}
	.st1{fill:#010101;}
</style>
<g id="Layer_3">
	<g>
		<path class="st0" d="M109.4,84.9c-6.2,0-11.9,0-17.9,0C97,91.1,104.3,91.1,109.4,84.9z"/>
		<path class="st0" d="M87.9,161.9c8.7,0,16.9,0,25,0c0-12.6,0-24.7,0-36.6c-8.6,0-16.6,0-25,0C87.9,137.6,87.9,149.5,87.9,161.9z"
			/>
		<path class="st0" d="M34.8,162c9.8,0,19.4,0,29.3,0c0-18.9,0-37.3,0-56.1c-9.9,0-19.4,0-29.3,0C34.8,124.7,34.8,143.1,34.8,162z"
			/>
		<path class="st0" d="M91.6,77c1.2,6.2,6.3,5.1,10.1,5.1c2.7,0,5.3-2.3,7.9-3.6c-0.3-0.5-0.6-1-0.9-1.5C103.1,77,97.4,77,91.6,77z"
			/>
		<path class="st0" d="M109.1,63.9c-6.1-5.3-11.6-5.3-17.3-0.1C97.4,68.8,104,68.8,109.1,63.9z"/>
		<path class="st0" d="M136.7,162c9.9,0,19.5,0,29.1,0c0-18.8,0-37.3,0-55.6c-10,0-19.6,0-29.1,0C136.7,125.2,136.7,143.5,136.7,162
			z"/>
		<path class="st0" d="M76.9,162c2.4,0,4.5,0,7.7,0c0-13.4,0-26.3,0-39.5c11.1,0,21.1,0,31.7,0c0,13.5,0,26.3,0,39.4
			c3.1,0,5.6,0,8.2,0c0-41.1,0-81.7,0-122.5c-16.1,0-31.8,0-47.6,0C76.9,80.5,76.9,121.1,76.9,162z M88.3,73.9c0-1.4,0-2.7,0-4.1
			c0.1-4.2-0.8-9,4.5-11c5.7-2.1,11.5-2.7,16.8,1.1c1.2,0.8,2.4,2.5,2.4,3.8c0.2,7.6,1.2,15.5-0.3,22.9c-1.3,6.5-8.2,6.1-13.5,5.7
			c-4.5-0.4-9.2-1.4-9.4-7.6c-0.1-3.6-0.4-7.2-0.6-10.8C88.2,73.9,88.2,73.9,88.3,73.9z"/>
		<path class="st0" d="M108.7,69.9c-5.7,0-11.4,0-17.6,0C96.6,76.6,105.6,76.4,108.7,69.9z"/>
		<path class="st1" d="M168.7,162.7c0-21.1,0-40.7,0-60c-12.2,0-23.6,0-35.7,0c0,2.9,0,5.4,0,7.9c0,15.6,0,31.2-0.2,46.8
			c0,1.5-1.7,3-2.5,4.5c-1.1-1.5-3-3.1-3.1-4.6c-0.1-14.2,0.1-28.5,0.2-42.7c0-26,0-51.9,0-78.8c-16.5,0-31.6,0.2-46.7-0.1
			c-6.2-0.1-8.1,2.2-8,8.4c0.4,37.5,0.5,75,0.5,112.6c0,1.9-1.7,3.8-2.7,5.8c-0.9-2-2.5-3.9-2.6-5.9c-0.2-15.6-0.1-31.2-0.1-46.8
			c0-2.4-0.3-4.7-0.5-7.1c-12.5,0-24.1,0-36.5,0c0,20,0,39.5,0,60.5c-9.1,0-17.5,0-25.8,0c0.1,0.6,0.1,1.3,0.2,1.9
			c63.1,0,126.2,0,189.3,0c0-0.8,0.1-1.6,0.1-2.3C186.2,162.7,177.8,162.7,168.7,162.7z M64.1,162c-9.9,0-19.5,0-29.3,0
			c0-18.8,0-37.3,0-56.1c9.8,0,19.4,0,29.3,0C64.1,124.7,64.1,143.1,64.1,162z M112.9,161.9c-8,0-16.2,0-25,0c0-12.4,0-24.3,0-36.6
			c8.3,0,16.4,0,25,0C112.9,137.2,112.9,149.3,112.9,161.9z M124.5,161.9c-2.6,0-5.1,0-8.2,0c0-13.1,0-25.9,0-39.4
			c-10.6,0-20.6,0-31.7,0c0,13.2,0,26.1,0,39.5c-3.2,0-5.3,0-7.7,0c0-40.9,0-81.5,0-122.6c15.8,0,31.5,0,47.6,0
			C124.5,80.2,124.5,120.7,124.5,161.9z M165.9,162c-9.6,0-19.2,0-29.1,0c0-18.6,0-36.8,0-55.6c9.6,0,19.1,0,29.1,0
			C165.9,124.8,165.9,143.2,165.9,162z"/>
		<path class="st1" d="M98.1,92.3c5.3,0.4,12.3,0.8,13.5-5.7c1.5-7.4,0.5-15.2,0.3-22.9c0-1.3-1.3-2.9-2.4-3.8
			c-5.3-3.8-11.1-3.2-16.8-1.1c-5.3,2-4.3,6.8-4.5,11c0,1.4,0,2.7,0,4.1c-0.1,0-0.1,0-0.2,0c0.2,3.6,0.5,7.2,0.6,10.8
			C89,90.9,93.7,92,98.1,92.3z M91.5,84.9c6,0,11.7,0,17.9,0C104.3,91.1,97,91.1,91.5,84.9z M109.6,78.5c-2.6,1.3-5.3,3.5-7.9,3.6
			c-3.8,0.1-8.9,1.1-10.1-5.1c5.8,0,11.5,0,17.2,0C109,77.5,109.3,78,109.6,78.5z M109.1,63.9c-5.1,4.9-11.7,4.9-17.3-0.1
			C97.5,58.6,103,58.7,109.1,63.9z M108.7,69.9c-3.1,6.5-12.1,6.7-17.6,0C97.3,69.9,103,69.9,108.7,69.9z"/>
	</g>
</g>
</svg>
