<?xml version="1.0" encoding="utf-8"?>
<!-- Generator: Adobe Illustrator 21.0.0, SVG Export Plug-In . SVG Version: 6.00 Build 0)  -->
<svg version="1.1" xmlns="http://www.w3.org/2000/svg" xmlns:xlink="http://www.w3.org/1999/xlink" x="0px" y="0px"
	 viewBox="0 0 595.3 841.9" style="enable-background:new 0 0 595.3 841.9;" xml:space="preserve">
<style type="text/css">
	.st0{fill:none;}
</style>
<g id="Layer_1">
	<g>
		<path class="st0" d="M335.8,667.9c3.7,11.6,15.5,11.1,23.9,12.6c-3.8-13.1-7.6-26.3-11.4-39.4
			C341.3,648.2,331.9,655.7,335.8,667.9z"/>
		<path class="st0" d="M476.6,633.4c-3.4,1.3-6.4,3.8-10.3,6.3c2.5,1.1,4.3,1.9,6,2.8c-0.6,0.8-1.2,1.5-1.7,2.3
			c-11.2,0.2-20.4-11.3-33.2-7.4c4.7,7.7,12.5,11.7,15.3,20c-6.2-6.3-10.8-1.9-15.6,1.2c-2.7,1.8-5.7,3.1-8.6,4.6
			c-0.4-0.4-0.9-0.8-1.3-1.2c1.1-1.8,2.2-3.5,3.6-5.7c-4.8-2.5-9.1-7.2-15.8-2.1c3,4.7,5.7,9.4,8.8,13.7c0.8,1.2,3.2,2.2,4.4,1.9
			c7.5-2.1,15.3-3.7,22.2-7.3c9.6-4.9,18.4-11.3,27.5-17.1c1.7-1.1,4-2.1,4.7-3.7c1-2.1,1.8-5.5,0.7-7
			C482.4,633.3,478.5,632.7,476.6,633.4z"/>
		<path d="M477.5,599.8c-7.6-2.4-15.9-2.5-23.8-3.8c-3.2-0.5-6.8-0.9-9.4-2.5c-35.1-21.1-78.3-5.3-91.6,33.5
			c-1.2,3.4-3.8,6.4-6.1,9.3c-4.5,5.8-10.3,10.9-13.8,17.3c-5.5,10.1-1.6,20.8,8.8,25.5c5.2,2.4,11.3,2.9,16.8,4.7
			c3.9,1.2,8.3,2.3,11.1,4.8c20.9,19.1,52.6,21.9,75.6,6c2.5-1.7,4.6-4.1,6.9-6.1c-0.5-0.9-1-1.7-1.5-2.6
			c-11.7,9.6-24.8,15.4-39.7,15.3c-15.2-0.1-28.1-5.6-39.2-16.5c12.3-2.1,23.8-4,35.6-6c-1.8,4.8-3.6,9.3-5.3,13.9
			c0.7,0.3,1.4,0.6,2.1,0.9c5-5.7,7.2-12.8,10.3-20.3c-7.1-3.2-13.6-6.2-20.1-9.1c-0.5,0.9-0.9,1.8-1.4,2.6c4.1,2.3,8.2,4.6,14.3,8
			c-12.4,1.8-23,3.3-33.6,5c-4.6,0.7-7.4-1.1-10-4.9c-18.7-28.2-6.9-68.9,24.1-82.6c24.5-10.8,51.4-4.1,68.9,17.1
			c1.2,1.5,2.9,2.6,4.4,3.9c0.5-0.5,1-1,1.5-1.6c-1.4-1.9-2.7-3.9-4.1-5.8c-1.4-1.8-2.8-3.5-4.3-5.3c0.3-0.6,0.7-1.1,1-1.7
			c7.4,1.6,15.1,2.4,22.2,4.9c11.4,4.2,14.3,14.6,9,23.6c-5.7,1.5-10.9,1.5-14.1,4.1c-7.5,6.1-14.6,6.4-22.7,1.9
			c-6.5-3.7-12-1.7-17.5,4.1c3.6,3.9,7,7.8,10.4,11.6c-4,4.7-8,5.1-12.6,1.7c-6.8-5-13.4-4-20.4,1.4c4.2,6.6,8.2,13.3,12.7,19.8
			c0.7,1.1,3,1.7,4.5,1.6c10.5-0.6,20.3-3.2,29.1-9.5c7.2-5.1,14.7-9.7,22.3-14.2c6.5-3.8,12.4-7.7,10.3-16.8
			c-0.2-1.1,0.8-2.5,1.3-3.7C495.9,616,491.5,604.3,477.5,599.8z M359.7,680.6c-8.4-1.6-20.2-1-23.9-12.6
			c-3.9-12.2,5.5-19.7,12.5-26.7C352.1,654.3,355.9,667.5,359.7,680.6z M482.6,641.7c-0.8,1.6-3,2.6-4.7,3.7
			c-9.1,5.8-17.9,12.2-27.5,17.1c-6.8,3.5-14.7,5.1-22.2,7.3c-1.2,0.3-3.6-0.7-4.4-1.9c-3.1-4.3-5.8-9-8.8-13.7
			c6.6-5.1,11-0.4,15.8,2.1c-1.4,2.2-2.5,4-3.6,5.7c0.4,0.4,0.9,0.8,1.3,1.2c2.9-1.5,5.9-2.9,8.6-4.6c4.8-3.1,9.4-7.5,15.6-1.2
			c-2.8-8.3-10.6-12.3-15.3-20c12.7-3.9,21.9,7.6,33.2,7.4c0.6-0.8,1.2-1.5,1.7-2.3c-1.8-0.8-3.5-1.6-6-2.8
			c3.9-2.5,6.9-5.1,10.3-6.3c2-0.7,5.8-0.1,6.8,1.3C484.4,636.2,483.6,639.6,482.6,641.7z"/>
	</g>
</g>
<g id="Layer_2">
	<g>
		<path class="st0" d="M194.1,681.3c-4.4-3.9-9-4.4-14.3-1.8c-11.7,5.7-15.6,5-23.7-5.1c-11.3-14-19.8-29.7-25.4-46.7
			c-4-12.1-2.4-14.6,7.9-21.9c3.7-2.6,6-7.1,9.2-11c-3.5-8.1-5.8-15.2-9.6-21.5c-2.8-4.7-7.9-6.1-13.7-4.1
			c-16.4,5.6-21.7,13.8-20.4,31.8c2.2,30.3,14.5,56.5,31.6,80.8c9.7,13.8,21.1,26.1,36.2,34c4.9,2.5,12.1,5.1,16.5,3.3
			c19-7.8,26.2-14.3,9.5-34C196.7,683.7,195.4,682.5,194.1,681.3z"/>
		<path d="M194.3,675.1c-7.3-5.5-14.7-2.2-21.5,1.6c-4.2,2.3-7.4,1.5-10.2-1.8c-12.8-15.2-22-32.4-28.2-51.2
			c-2.1-6.2-0.1-10,5.7-12.9c6.3-3.2,11.1-7.8,10.7-15.1c0.1-8.2-4.6-21.7-10-26.7c-2.8-2.6-6.7-5.1-10.4-5.7
			c-11.5-2-29.3,11.3-31,23c-0.8,5.3-1,10.8-0.6,16.2c2,31.2,15.1,58.2,32.8,83.2c11.2,15.9,24.6,29.4,42.8,37.5
			c10.8,4.8,31-3,35.9-13.9c0.9-2,1.5-4.4,1.4-6.5C210.8,690.4,203.6,682,194.3,675.1z M188.4,719.1c-4.4,1.8-11.6-0.7-16.5-3.3
			c-15.1-7.9-26.5-20.2-36.2-34c-17.1-24.4-29.4-50.6-31.6-80.8c-1.3-17.9,3.9-26.1,20.4-31.8c5.8-2,10.9-0.6,13.7,4.1
			c3.7,6.3,6.1,13.4,9.6,21.5c-3.2,4-5.6,8.5-9.2,11c-10.3,7.3-11.9,9.8-7.9,21.9c5.6,17.1,14.1,32.7,25.4,46.7
			c8.1,10.1,12,10.8,23.7,5.1c5.4-2.6,10-2.1,14.3,1.8c1.3,1.2,2.7,2.4,3.8,3.8C214.6,704.8,207.4,711.4,188.4,719.1z"/>
		<path d="M207.2,583.9c-8.1-6.1-18.1-9.8-27.4-14.3c-1.1-0.5-2.9,0.6-4.4,0.9c1,1.2,1.9,2.6,3.1,3.5c1,0.8,2.5,0.9,3.8,1.4
			c20,8.2,35.8,21,43.9,41.6c5.9,15,7.4,30.6,4.5,46.6c-0.3,1.5,1,3.3,1.5,4.9c1.2-1.4,3.2-2.7,3.5-4.2c1-5.3,1.4-10.7,1.8-13.8
			C237.2,622.2,228.3,599.9,207.2,583.9z"/>
		<path d="M177.4,589.9c-1.8-0.6-4,0.1-5.9,0.2c1.5,1.5,2.8,3.4,4.5,4.6c7.2,4.9,15.5,8.6,21.7,14.5c13.6,12.9,16,29.7,13.7,47.5
			c-0.4,3.4-1,6,3.8,5.2C224.2,631.9,207.5,600.1,177.4,589.9z"/>
		<path d="M188.8,653.5c-0.1,1.3,1.4,2.7,2.1,4.1c1-1.3,2.6-2.5,2.9-4c4.1-16.5-7.4-36.7-23.5-41.4c-1.7-0.5-3.8,0.2-7.4,0.6
			c2.3,2,2.9,3,3.8,3.4C183.8,623,190.8,635.6,188.8,653.5z"/>
	</g>
</g>
<g id="Layer_3">
	<g>
		<path class="st0" d="M407.4,385.9c-6.2,0-11.9,0-17.9,0C395,392.1,402.3,392.1,407.4,385.9z"/>
		<path class="st0" d="M385.9,462.9c8.7,0,16.9,0,25,0c0-12.6,0-24.7,0-36.6c-8.6,0-16.6,0-25,0
			C385.9,438.6,385.9,450.5,385.9,462.9z"/>
		<path class="st0" d="M332.8,463c9.8,0,19.4,0,29.3,0c0-18.9,0-37.3,0-56.1c-9.9,0-19.4,0-29.3,0
			C332.8,425.7,332.8,444.1,332.8,463z"/>
		<path class="st0" d="M389.6,378c1.2,6.2,6.3,5.1,10.1,5.1c2.7,0,5.3-2.3,7.9-3.6c-0.3-0.5-0.6-1-0.9-1.5
			C401.1,378,395.4,378,389.6,378z"/>
		<path class="st0" d="M407.1,364.9c-6.1-5.3-11.6-5.3-17.3-0.1C395.4,369.8,402,369.8,407.1,364.9z"/>
		<path class="st0" d="M434.7,463c9.9,0,19.5,0,29.1,0c0-18.8,0-37.3,0-55.6c-10,0-19.6,0-29.1,0C434.7,426.2,434.7,444.5,434.7,463
			z"/>
		<path class="st0" d="M374.9,463c2.4,0,4.5,0,7.7,0c0-13.4,0-26.3,0-39.5c11.1,0,21.1,0,31.7,0c0,13.5,0,26.3,0,39.4
			c3.1,0,5.6,0,8.2,0c0-41.1,0-81.7,0-122.5c-16.1,0-31.8,0-47.6,0C374.9,381.5,374.9,422.1,374.9,463z M386.3,374.9
			c0-1.4,0-2.7,0-4.1c0.1-4.2-0.8-9,4.5-11c5.7-2.1,11.5-2.7,16.8,1.1c1.2,0.8,2.4,2.5,2.4,3.8c0.2,7.6,1.2,15.5-0.3,22.9
			c-1.3,6.5-8.2,6.1-13.5,5.7c-4.5-0.4-9.2-1.4-9.4-7.6c-0.1-3.6-0.4-7.2-0.6-10.8C386.2,374.9,386.2,374.9,386.3,374.9z"/>
		<path class="st0" d="M406.7,370.9c-5.7,0-11.4,0-17.6,0C394.6,377.6,403.6,377.4,406.7,370.9z"/>
		<path d="M466.7,463.7c0-21.1,0-40.7,0-60c-12.2,0-23.6,0-35.7,0c0,2.9,0,5.4,0,7.9c0,15.6,0,31.2-0.2,46.8c0,1.5-1.7,3-2.5,4.5
			c-1.1-1.5-3-3.1-3.1-4.6c-0.1-14.2,0.1-28.5,0.2-42.7c0-26,0-51.9,0-78.8c-16.5,0-31.6,0.2-46.7-0.1c-6.2-0.1-8.1,2.2-8,8.4
			c0.4,37.5,0.5,75,0.5,112.6c0,1.9-1.7,3.8-2.7,5.8c-0.9-2-2.5-3.9-2.6-5.9c-0.2-15.6-0.1-31.2-0.1-46.8c0-2.4-0.3-4.7-0.5-7.1
			c-12.5,0-24.1,0-36.5,0c0,20,0,39.5,0,60.5c-9.1,0-17.5,0-25.8,0c0.1,0.6,0.1,1.3,0.2,1.9c63.1,0,126.2,0,189.3,0
			c0-0.8,0.1-1.6,0.1-2.3C484.2,463.7,475.8,463.7,466.7,463.7z M362.1,463c-9.9,0-19.5,0-29.3,0c0-18.8,0-37.3,0-56.1
			c9.8,0,19.4,0,29.3,0C362.1,425.7,362.1,444.1,362.1,463z M410.9,462.9c-8,0-16.2,0-25,0c0-12.4,0-24.3,0-36.6c8.3,0,16.4,0,25,0
			C410.9,438.2,410.9,450.3,410.9,462.9z M422.5,462.9c-2.6,0-5.1,0-8.2,0c0-13.1,0-25.9,0-39.4c-10.6,0-20.6,0-31.7,0
			c0,13.2,0,26.1,0,39.5c-3.2,0-5.3,0-7.7,0c0-40.9,0-81.5,0-122.6c15.8,0,31.5,0,47.6,0C422.5,381.2,422.5,421.7,422.5,462.9z
			 M463.9,463c-9.6,0-19.2,0-29.1,0c0-18.6,0-36.8,0-55.6c9.6,0,19.1,0,29.1,0C463.9,425.8,463.9,444.2,463.9,463z"/>
		<path d="M396.1,393.3c5.3,0.4,12.3,0.8,13.5-5.7c1.5-7.4,0.5-15.2,0.3-22.9c0-1.3-1.3-2.9-2.4-3.8c-5.3-3.8-11.1-3.2-16.8-1.1
			c-5.3,2-4.3,6.8-4.5,11c0,1.4,0,2.7,0,4.1c-0.1,0-0.1,0-0.2,0c0.2,3.6,0.5,7.2,0.6,10.8C387,391.9,391.7,393,396.1,393.3z
			 M389.5,385.9c6,0,11.7,0,17.9,0C402.3,392.1,395,392.1,389.5,385.9z M407.6,379.5c-2.6,1.3-5.3,3.5-7.9,3.6
			c-3.8,0.1-8.9,1.1-10.1-5.1c5.8,0,11.5,0,17.2,0C407,378.5,407.3,379,407.6,379.5z M407.1,364.9c-5.1,4.9-11.7,4.9-17.3-0.1
			C395.5,359.6,401,359.7,407.1,364.9z M406.7,370.9c-3.1,6.5-12.1,6.7-17.6,0C395.3,370.9,401,370.9,406.7,370.9z"/>
	</g>
</g>
<g id="Layer_4">
	<g>
		<path class="st0" d="M414.3,217.6c-0.2,1.6,3.6,5.3,5.6,5.3c2.4,0,4.9-2.9,7.3-4.5c0-1,0-1.9,0-2.9c-2.5-1.5-5.2-4.6-7.3-4.2
			C417.6,211.7,414.7,215.1,414.3,217.6z"/>
		<path class="st0" d="M463.8,100.9c-29.6,0-58.9,0-87.9,0c0,7.5,0,14.4,0,21.7c8.9,0,17.3-0.1,25.6,0c9,0.1,12.4,3.2,12.6,12
			c0.2,9.2,0.1,18.5,0,27.7c0,12.7-2.6,15.3-15.6,15.3c-7.6,0-15.2,0-23,0c0,7.6,0,14.1,0,21.2c29.9,0,59.1,0,88.3,0
			C463.8,165.8,463.8,133.4,463.8,100.9z"/>
		<path class="st0" d="M346.5,159.4c0.1,1.8,2.6,3.4,4,5.1c1.7-1.7,4.3-3.1,4.9-5.1c0.4-1.4-2-3.5-4.1-6.8
			C348.9,155.9,346.5,157.7,346.5,159.4z"/>
		<path class="st0" d="M410.9,139.7c1-12.3-0.8-14.3-12.1-14.3c-16.5,0-33,0-49.5,0c-12.1,0-13.7,1.8-12.3,14.3
			C362,139.7,386.5,139.7,410.9,139.7z M367.5,134.4c0,0.4,0,0.9,0,1.3c-8.4,0-16.7,0-25.1,0c0-0.4,0-0.9,0-1.3
			C350.8,134.4,359.1,134.4,367.5,134.4z"/>
		<path class="st0" d="M410.8,167.7c0.9-7.9,0.3-16.1,0.3-24.4c-25.1,0-49.4,0-74.6,0c0,8.3,0,15.9,0,23.5c0,4.7,2.5,7.3,7,7.3
			c20.1,0.1,40.2,0.3,60.3-0.2C406.3,174,410.5,170.2,410.8,167.7z M351,167.1c-4.7,0.5-7.7-3-7.5-8.2c0.2-4.9,3.2-7.5,7.8-7.4
			c5,0.1,7.5,3.4,7.8,10.7C357.1,163.5,354.2,166.8,351,167.1z M373.7,158.7c10.2,0,20.3,0,30.5,0c0,0.4,0,0.9,0,1.3
			c-10.2,0-20.3,0-30.5,0C373.7,159.6,373.7,159.1,373.7,158.7z"/>
		<path class="st0" d="M447.5,77.2c-18.5,0-37,0-55.6,0c-13.6,0-17.8,5-15.9,19.5c29.4,0,58.5,0,87.5,0
			C465.7,81.8,461.9,77.2,447.5,77.2z M411.7,88c0-0.4,0-0.9,0-1.3c5.6,0,11.3,0,16.9,0c0,0.4,0,0.9,0,1.3C423,88,417.3,88,411.7,88
			z"/>
		<path class="st0" d="M375.8,203c0,7.1-0.4,13.8,0.1,20.5c0.5,6.2,4.7,9.8,10.9,9.9c21.9,0.2,43.8,0.1,65.7,0
			c5.9,0,10.4-3.2,11.1-9c0.8-7,0.2-14.2,0.2-21.3C434.2,203,405.1,203,375.8,203z M420,226.4c-5,0-9.1-4-9.2-8.9
			c-0.1-5.4,3.9-9.7,9.1-9.8c5-0.1,9.6,4.3,9.6,9.3C429.4,222.3,425.2,226.5,420,226.4z"/>
		<path d="M467.6,94.7c0-2.3,0-4.5-0.2-6.8c-1-8.9-6.1-14-15.2-14.1c-21.7-0.2-43.4-0.1-65.1,0.1c-7.4,0.1-13.1,4.8-14,12.2
			c-0.9,6.9-0.6,13.9-0.7,20.9c-0.1,5.1,0,10.1,0,15.5c-9.8,0-18.6-0.1-27.4,0c-7.7,0.1-11,3.4-11.1,11.2c-0.1,9.9-0.1,19.9,0,29.8
			c0,10.7,2.7,13.6,13.5,13.9c8.1,0.3,16.2,0.1,24.9,0.1c0.2,2.2,0.4,3.3,0.4,4.4c-0.1,11.3,0.1,22.6-0.5,33.9
			c-0.7,14,5.3,20.8,19.3,20.8c18.8,0,37.5,0,56.3,0c15.1,0,19.9-4.8,19.9-19.9C467.6,176.1,467.6,135.4,467.6,94.7z M349.4,125.4
			c16.5,0,33,0,49.5,0c11.3,0,13.1,2,12.1,14.3c-24.4,0-48.9,0-73.9,0C335.7,127.2,337.3,125.4,349.4,125.4z M343.5,174.2
			c-4.5,0-7-2.6-7-7.3c0-7.6,0-15.3,0-23.5c25.2,0,49.5,0,74.6,0c0,8.3,0.6,16.4-0.3,24.4c-0.3,2.4-4.5,6.2-7,6.3
			C383.7,174.5,363.6,174.4,343.5,174.2z M375.6,177.7c7.8,0,15.4,0,23,0c13,0,15.6-2.6,15.6-15.3c0-9.2,0.2-18.5,0-27.7
			c-0.2-8.8-3.6-11.9-12.6-12c-8.3-0.1-16.7,0-25.6,0c0-7.3,0-14.2,0-21.7c29.1,0,58.3,0,87.9,0c0,32.5,0,64.9,0,97.9
			c-29.1,0-58.3,0-88.3,0C375.6,191.8,375.6,185.3,375.6,177.7z M463.6,224.3c-0.7,5.8-5.1,8.9-11.1,9c-21.9,0.1-43.8,0.2-65.7,0
			c-6.2,0-10.4-3.7-10.9-9.9c-0.6-6.7-0.1-13.4-0.1-20.5c29.3,0,58.3,0,88,0C463.8,210.1,464.5,217.3,463.6,224.3z M463.6,96.8
			c-29,0-58.1,0-87.5,0c-1.9-14.5,2.3-19.5,15.9-19.5c18.5,0,37,0,55.6,0C461.9,77.2,465.7,81.8,463.6,96.8z"/>
		<path d="M419.9,207.7c-5.2,0.1-9.2,4.4-9.1,9.8c0.1,4.9,4.2,8.9,9.2,8.9c5.2,0,9.5-4.2,9.5-9.4C429.4,212,424.9,207.6,419.9,207.7
			z M427.2,218.4c-2.4,1.6-4.9,4.5-7.3,4.5c-2,0-5.8-3.7-5.6-5.3c0.4-2.5,3.2-5.9,5.5-6.3c2.1-0.4,4.9,2.7,7.3,4.2
			C427.2,216.5,427.2,217.4,427.2,218.4z"/>
		<path d="M351.3,151.6c-4.5-0.1-7.6,2.5-7.8,7.4c-0.2,5.2,2.8,8.6,7.5,8.2c3.2-0.3,6-3.6,8.1-4.9
			C358.8,155,356.3,151.7,351.3,151.6z M355.4,159.4c-0.6,2-3.1,3.4-4.9,5.1c-1.4-1.7-3.9-3.4-4-5.1c-0.1-1.7,2.3-3.5,4.8-6.7
			C353.4,155.9,355.8,158.1,355.4,159.4z"/>
		<path d="M404.2,158.7c-10.2,0-20.3,0-30.5,0c0,0.4,0,0.9,0,1.3c10.2,0,20.3,0,30.5,0C404.2,159.6,404.2,159.1,404.2,158.7z"/>
		<path d="M411.7,86.7c0,0.4,0,0.9,0,1.3c5.6,0,11.3,0,16.9,0c0-0.4,0-0.9,0-1.3C422.9,86.7,417.3,86.7,411.7,86.7z"/>
		<path d="M367.5,135.7c0-0.4,0-0.9,0-1.3c-8.4,0-16.7,0-25.1,0c0,0.4,0,0.9,0,1.3C350.8,135.7,359.2,135.7,367.5,135.7z"/>
	</g>
</g>
<g id="Layer_5">
	<g>
		<path class="st0" d="M172.5,129.6c-11.7-0.2-23.5-0.1-35.2,0.1c-6.5,0.1-9.2,3.1-9.4,9.8c-0.1,5,0,9.9,0,14.9
			c0,11.8,0.5,12.5,11.8,15.3c0.1,3,0.3,6.1,0.5,10c12.6-9.9,12.6-9.9,28.7-11.1c1.8-0.1,3.6-0.3,5.4-0.4c5.1-0.4,7.8-3,7.8-8.2
			c0-6.8,0-13.5,0-20.3C181.9,132.3,179.7,129.7,172.5,129.6z M136,156.4c0-0.7,0-1.3,0-2c12.5,0,25.1,0,37.6,0c0,0.7,0,1.3,0,2
			C161.1,156.4,148.5,156.4,136,156.4z M135.4,145.2c3.8-4.4,34.4-4.7,39.3,0C161,145.2,148.5,145.2,135.4,145.2z"/>
		<path class="st0" d="M202.5,96.7c-31.9,0-63.2,0-94.4,0c0,35.6,0,70.7,0,105.9c31.7,0,62.8,0,94.4,0
			C202.5,166.8,202.5,131.8,202.5,96.7z M186,160.9c-0.2,7-4.3,11.4-11.3,11.8c-4.3,0.3-8.6,0.5-12.9,0c-5.7-0.6-9.7,1.5-13.5,5.6
			c-2.4,2.5-6.2,3.7-9.3,5.5c-1.5-3.2-3-6.4-5.2-11.3c-8.4-3.3-10-5.5-10-15.9c0-5.6-0.1-11.3,0-16.9c0.2-8.9,4.3-13.7,13.1-14.1
			c12.2-0.4,24.4-0.4,36.6,0c8.5,0.3,12.4,4.9,12.5,13.5C186.1,146.5,186.2,153.7,186,160.9z"/>
		<path class="st0" d="M107.5,207.1c0,7-0.2,13.4,0.1,19.6c0.4,7.6,4.9,12.3,12.5,12.4c23.3,0.2,46.6,0.2,69.9,0
			c6.7,0,11.9-4.5,12.3-10.3c0.5-7.1,0.1-14.3,0.1-21.7C170.6,207.1,139.5,207.1,107.5,207.1z M155.4,232.6
			c-5.4-0.1-10.4-4.9-10.5-10.3c-0.2-5.8,4.8-10.9,10.6-10.9c5.6,0,10.3,4.7,10.4,10.3C166,227.5,161,232.7,155.4,232.6z"/>
		<path class="st0" d="M155.5,215.2c-2.2,2.1-5.7,4.1-6.1,6.5c-0.3,2.2,2.7,5,4.2,7.5c0.9,0,1.9,0.1,2.8,0.1c1.7-2.4,5-5,4.8-7.2
			C161,219.6,157.6,217.5,155.5,215.2z"/>
		<path class="st0" d="M186.1,71.1c-20.4,0-40.7,0-61.1,0c-14.6,0-19.5,6.1-16.6,20.7c31.1,0,62.2,0,93.8,0
			C204.8,77.3,199.9,71.1,186.1,71.1z M164,82.9c-6.1,0-12.2,0-18.3,0c0-0.4,0-0.8,0-1.2c6.1,0,12.2,0,18.3,0
			C164,82.1,164,82.5,164,82.9z"/>
		<path d="M207,86.8c-0.1-14.2-5.8-19.7-19.7-19.7c-21.5,0-42.9,0-64.4,0c-13.4,0-19.4,6-19.4,19.5c0,22.8,0,45.7,0,68.5
			c0,23.3-0.1,46.6,0,69.8c0,11.6,6.4,18.3,17.8,18.4c22.8,0.2,45.7,0.1,68.5,0c10.2-0.1,16.4-5.4,16.7-15.5
			c0.6-19,0.5-37.9,0.5-56.9C207.1,142.9,207.2,114.8,207,86.8z M202.3,228.9c-0.4,5.9-5.6,10.3-12.3,10.3
			c-23.3,0.2-46.6,0.2-69.9,0c-7.6-0.1-12.1-4.8-12.5-12.4c-0.3-6.3-0.1-12.6-0.1-19.6c32,0,63.1,0,94.9,0
			C202.4,214.6,202.7,221.7,202.3,228.9z M108.1,202.6c0-35.2,0-70.3,0-105.9c31.2,0,62.5,0,94.4,0c0,35,0,70.1,0,105.9
			C170.9,202.6,139.8,202.6,108.1,202.6z M202.2,91.9c-31.6,0-62.7,0-93.8,0c-3-14.7,2-20.7,16.6-20.7c20.4,0,40.7,0,61.1,0
			C199.9,71.1,204.8,77.3,202.2,91.9z"/>
		<path d="M173.5,125.7c-12.2-0.4-24.4-0.4-36.6,0c-8.7,0.3-12.8,5.1-13.1,14.1c-0.2,5.6,0,11.3,0,16.9c0,10.4,1.6,12.6,10,15.9
			c2.2,4.8,3.7,8,5.2,11.3c3.2-1.8,6.9-3,9.3-5.5c3.8-4.1,7.8-6.2,13.5-5.6c4.2,0.5,8.6,0.2,12.9,0c7-0.5,11.1-4.9,11.3-11.8
			c0.2-7.2,0.1-14.4,0-21.7C185.9,130.7,182,126,173.5,125.7z M174.2,168.2c-1.8,0.1-3.6,0.3-5.4,0.4c-16.1,1.2-16.1,1.2-28.7,11.1
			c-0.2-3.9-0.3-7-0.5-10c-11.2-2.8-11.8-3.5-11.8-15.3c0-5-0.1-9.9,0-14.9c0.2-6.7,2.8-9.7,9.4-9.8c11.7-0.2,23.5-0.3,35.2-0.1
			c7.2,0.1,9.5,2.7,9.5,10c0,6.8,0,13.5,0,20.3C182,165.2,179.4,167.8,174.2,168.2z"/>
		<path d="M155.4,211.3c-5.8,0-10.8,5.1-10.6,10.9c0.2,5.4,5.1,10.3,10.5,10.3c5.7,0.1,10.6-5,10.5-10.9
			C165.7,216,161,211.3,155.4,211.3z M156.5,229.3c-0.9,0-1.9-0.1-2.8-0.1c-1.6-2.5-4.6-5.3-4.2-7.5c0.4-2.4,3.9-4.3,6.1-6.5
			c2.1,2.3,5.6,4.4,5.8,6.8C161.5,224.3,158.2,226.9,156.5,229.3z"/>
		<path d="M145.7,82.9c6.1,0,12.2,0,18.3,0c0-0.4,0-0.8,0-1.2c-6.1,0-12.2,0-18.3,0C145.7,82.1,145.7,82.5,145.7,82.9z"/>
		<path d="M135.4,145.2c13,0,25.6,0,39.3,0C169.9,140.5,139.3,140.8,135.4,145.2z"/>
		<path d="M136,154.4c0,0.7,0,1.3,0,2c12.5,0,25.1,0,37.6,0c0-0.7,0-1.3,0-2C161.1,154.4,148.5,154.4,136,154.4z"/>
	</g>
</g>
<g id="Layer_6">
	<g>
		<path class="st0" d="M151.5,416.3c5.7-4.5,3-10.4,3.1-15.8c0.1-4.4,0.5-8.8,0.8-13.5c-1.7,0-4.9,0-9.5,0
			C155.7,396.2,143.3,407.7,151.5,416.3z"/>
		<path class="st0" d="M204.9,399.1c-1.8-3.2-4.4-6.4-7.4-8.6c-9.7-7.5-20.6-5.6-27.2,4.5c-5.9,9-11.6,18.2-18.3,28.7
			c-2.2-3-3.5-4.7-4.7-6.5c-5.7-8.9-11.4-17.9-17.2-26.7c-1.1-1.7-3.1-4-4.8-4.1c-9.6-0.6-18.8,0.9-24.1,10.2
			c-7.5,13.1-14.7,26.4-21.5,39.9c-3.3,6.6-4.5,14.4,0.9,20.5c9.6,10.8,22.8,16,34.7,22c6.2-16.8-1.9-25.8-17-31.1
			c4.7-8.9,8.7-16.9,13.2-24.7c1.2-2,3.6-3.3,5.5-4.9c1.1,2.5,3.1,4.9,3.1,7.4c0.3,15.8,0.1,31.6,0.2,47.5c0,2.4,0.2,4.8,0.3,7.1
			c21.7,0,42.6,0,64.2,0c0-4.8,0-9.3,0-13.8c0-14.2-0.1-28.5,0.1-42.7c0-1.7,1.1-3.8,2.5-4.9c0.6-0.5,3.7,0.5,4.3,1.6
			c5.1,8.7,9.8,17.5,15.2,27.4c-16,5.2-23.1,14.9-17.3,31.8c8.8-5.1,17.5-9.8,25.9-15c12.7-7.8,15.3-17.2,8.5-30.4
			C217.9,422.3,211.5,410.6,204.9,399.1z"/>
		<path class="st0" d="M151.8,371.8c12.7,0,23.5-10.6,23.5-23c0-12.5-10.5-23.2-23.1-23.4c-12.9-0.2-23,9.9-23.1,23
			C128.9,361.5,139,371.8,151.8,371.8z"/>
		<path class="st0" d="M188.5,422.9c0,11.3,0,20.7,0,31.1c4.8-3,8.6-5.4,12.6-8C197,438.6,193.1,431.4,188.5,422.9z"/>
		<path class="st0" d="M115.8,453.6c0-10.1,0-19.4,0-28.6c-0.4-0.1-0.7-0.3-1.1-0.4c-3.6,7-7.2,14-11.1,21.5
			C107.7,448.5,111.4,450.8,115.8,453.6z"/>
		<path d="M230.9,443.3c-1.1-5.2-3.2-10.3-5.6-15.1c-4.6-9.1-10.1-17.6-14.5-26.8c-6.5-13.7-16.7-20.5-31.9-18.5
			c-2.8,0.4-6.1,2.4-7.8,4.6c-4.1,5.2-7.5,11-11.1,16.6c-0.8-0.3-1.5-0.5-2.3-0.8c1-4.5,2-9,3.1-13.5c0.9-4-0.2-6.7-4.6-7.2
			c-2.2-0.2-4.5-0.2-6.8-0.1c-5.3,0.3-6.8,3.1-5.2,8.1c1.3,4,1.6,8.2,2.4,12.4c-0.8,0.1-1.6,0.3-2.5,0.4
			c-3.7-5.6-7.4-11.3-11.2-16.8c-1-1.4-2.1-3.3-3.5-3.9c-9.1-3.7-25,1.3-30.2,10.1c-8,13.8-15.7,27.9-22.7,42.3
			c-6.1,12.7-2.4,23.9,9.5,31.6c8,5.1,16.1,10,24.6,14.2c4.2,2.1,9.4,3.2,14.1,3.3c18.3,0.4,36.6,0.4,54.9,0
			c5.2-0.1,10.8-1.4,15.4-3.6c8.5-4.1,16.6-9,24.7-14C228.5,461.4,233.1,453.7,230.9,443.3z M145.9,387c4.6,0,7.8,0,9.5,0
			c-0.3,4.7-0.6,9.1-0.8,13.5c-0.2,5.4,2.5,11.3-3.1,15.8C143.3,407.7,155.7,396.2,145.9,387z M215.5,464.5
			c-8.4,5.2-17.1,9.9-25.9,15c-5.8-16.9,1.3-26.6,17.3-31.8c-5.4-9.9-10.2-18.8-15.2-27.4c-0.6-1.1-3.7-2.1-4.3-1.6
			c-1.3,1.1-2.4,3.2-2.5,4.9c-0.2,14.2-0.1,28.5-0.1,42.7c0,4.5,0,8.9,0,13.8c-21.5,0-42.5,0-64.2,0c-0.1-2.3-0.3-4.7-0.3-7.1
			c0-15.8,0.1-31.6-0.2-47.5c0-2.5-2-4.9-3.1-7.4c-1.9,1.6-4.3,2.9-5.5,4.9c-4.4,7.8-8.5,15.8-13.2,24.7c15.1,5.3,23.2,14.3,17,31.1
			c-11.9-6-25.1-11.2-34.7-22c-5.4-6.1-4.2-13.8-0.9-20.5c6.8-13.5,14-26.8,21.5-39.9c5.3-9.3,14.5-10.8,24.1-10.2
			c1.7,0.1,3.7,2.4,4.8,4.1c5.9,8.8,11.5,17.8,17.2,26.7c1.2,1.8,2.5,3.5,4.7,6.5c6.7-10.5,12.4-19.6,18.3-28.7
			c6.5-10,17.5-12,27.2-4.5c2.9,2.3,5.5,5.4,7.4,8.6c6.6,11.5,13,23.2,19.1,35C230.8,447.3,228.2,456.7,215.5,464.5z M188.5,454
			c0-10.4,0-19.8,0-31.1c4.7,8.6,8.5,15.7,12.6,23.2C197,448.6,193.3,451,188.5,454z M115.8,424.9c0,9.2,0,18.5,0,28.6
			c-4.4-2.7-8.1-5-12.2-7.5c3.8-7.5,7.5-14.5,11.1-21.5C115.1,424.7,115.5,424.8,115.8,424.9z"/>
		<path d="M152.2,375.8c14.2-0.1,26.9-12.7,26.9-26.8c0-14.5-12.6-27.3-27.1-27.4c-14.7-0.1-26.9,12.3-26.9,27.3
			C125.1,364,137.1,375.9,152.2,375.8z M152.1,325.5c12.6,0.2,23.2,10.8,23.1,23.4c0,12.4-10.8,23-23.5,23
			c-12.7,0-22.9-10.4-22.8-23.3C129.1,335.4,139.3,325.3,152.1,325.5z"/>
	</g>
</g>
</svg>
