<?xml version="1.0" encoding="utf-8"?>
<!-- Generator: Adobe Illustrator 21.0.0, SVG Export Plug-In . SVG Version: 6.00 Build 0)  -->
<svg version="1.1" id="Layer_1" xmlns="http://www.w3.org/2000/svg" xmlns:xlink="http://www.w3.org/1999/xlink" x="0px" y="0px"
	 viewBox="0 0 200 200" style="enable-background:new 0 0 200 200;" xml:space="preserve">
<style type="text/css">
	.st0{fill:none;}
	.st1{fill:#010101;}
</style>
<g id="Layer_5">
	<g>
		<path class="st0" d="M113.8,71.5c-11.7-0.2-23.5-0.1-35.2,0.1c-6.5,0.1-9.2,3.1-9.4,9.8c-0.1,5,0,9.9,0,14.9
			c0,11.8,0.5,12.5,11.8,15.3c0.1,3,0.3,6.1,0.5,10c12.6-9.9,12.6-9.9,28.7-11.1c1.8-0.1,3.6-0.3,5.4-0.4c5.1-0.4,7.8-3,7.8-8.2
			c0-6.8,0-13.5,0-20.3C123.2,74.2,121,71.6,113.8,71.5z M77.3,98.3c0-0.7,0-1.3,0-2c12.5,0,25.1,0,37.6,0c0,0.7,0,1.3,0,2
			C102.4,98.3,89.8,98.3,77.3,98.3z M76.7,87.1c3.8-4.4,34.4-4.7,39.3,0C102.3,87.1,89.8,87.1,76.7,87.1z"/>
		<path class="st0" d="M143.8,38.6c-31.9,0-63.2,0-94.4,0c0,35.6,0,70.7,0,105.9c31.7,0,62.8,0,94.4,0
			C143.8,108.7,143.8,73.7,143.8,38.6z M127.3,102.8c-0.2,7-4.3,11.4-11.3,11.8c-4.3,0.3-8.6,0.5-12.9,0c-5.7-0.6-9.7,1.5-13.5,5.6
			c-2.4,2.5-6.2,3.7-9.3,5.5c-1.5-3.2-3-6.4-5.2-11.3c-8.4-3.3-10-5.5-10-15.9c0-5.6-0.1-11.3,0-16.9c0.2-8.9,4.3-13.7,13.1-14.1
			c12.2-0.4,24.4-0.4,36.6,0c8.5,0.3,12.4,4.9,12.5,13.5C127.4,88.4,127.5,95.6,127.3,102.8z"/>
		<path class="st0" d="M48.8,149c0,7-0.2,13.4,0.1,19.6c0.4,7.6,4.9,12.3,12.5,12.4c23.3,0.2,46.6,0.2,69.9,0
			c6.7,0,11.9-4.5,12.3-10.3c0.5-7.1,0.1-14.3,0.1-21.7C111.9,149,80.8,149,48.8,149z M96.7,174.5c-5.4-0.1-10.4-4.9-10.5-10.3
			c-0.2-5.8,4.8-10.9,10.6-10.9c5.6,0,10.3,4.7,10.4,10.3C107.3,169.4,102.3,174.6,96.7,174.5z"/>
		<path class="st0" d="M96.8,157.1c-2.2,2.1-5.7,4.1-6.1,6.5c-0.3,2.2,2.7,5,4.2,7.5c0.9,0,1.9,0.1,2.8,0.1c1.7-2.4,5-5,4.8-7.2
			C102.3,161.5,98.9,159.4,96.8,157.1z"/>
		<path class="st0" d="M127.4,13c-20.4,0-40.7,0-61.1,0c-14.6,0-19.5,6.1-16.6,20.7c31.1,0,62.2,0,93.8,0
			C146.1,19.2,141.2,13,127.4,13z M105.3,24.8c-6.1,0-12.2,0-18.3,0c0-0.4,0-0.8,0-1.2c6.1,0,12.2,0,18.3,0
			C105.3,24,105.3,24.4,105.3,24.8z"/>
		<path class="st1" d="M148.3,28.7C148.2,14.5,142.5,9,128.6,9c-21.5,0-42.9,0-64.4,0c-13.4,0-19.4,6-19.4,19.5
			c0,22.8,0,45.7,0,68.5c0,23.3-0.1,46.6,0,69.8c0,11.6,6.4,18.3,17.8,18.4c22.8,0.2,45.7,0.1,68.5,0c10.2-0.1,16.4-5.4,16.7-15.5
			c0.6-19,0.5-37.9,0.5-56.9C148.4,84.8,148.5,56.7,148.3,28.7z M143.6,170.8c-0.4,5.9-5.6,10.3-12.3,10.3
			c-23.3,0.2-46.6,0.2-69.9,0c-7.6-0.1-12.1-4.8-12.5-12.4c-0.3-6.3-0.1-12.6-0.1-19.6c32,0,63.1,0,94.9,0
			C143.7,156.5,144,163.6,143.6,170.8z M49.4,144.5c0-35.2,0-70.3,0-105.9c31.2,0,62.5,0,94.4,0c0,35,0,70.1,0,105.9
			C112.2,144.5,81.1,144.5,49.4,144.5z M143.5,33.8c-31.6,0-62.7,0-93.8,0c-3-14.7,2-20.7,16.6-20.7c20.4,0,40.7,0,61.1,0
			C141.2,13,146.1,19.2,143.5,33.8z"/>
		<path class="st1" d="M114.8,67.6c-12.2-0.4-24.4-0.4-36.6,0c-8.7,0.3-12.8,5.1-13.1,14.1c-0.2,5.6,0,11.3,0,16.9
			c0,10.4,1.6,12.6,10,15.9c2.2,4.8,3.7,8,5.2,11.3c3.2-1.8,6.9-3,9.3-5.5c3.8-4.1,7.8-6.2,13.5-5.6c4.2,0.5,8.6,0.2,12.9,0
			c7-0.5,11.1-4.9,11.3-11.8c0.2-7.2,0.1-14.4,0-21.7C127.2,72.6,123.3,67.9,114.8,67.6z M115.5,110.1c-1.8,0.1-3.6,0.3-5.4,0.4
			c-16.1,1.2-16.1,1.2-28.7,11.1c-0.2-3.9-0.3-7-0.5-10c-11.2-2.8-11.8-3.5-11.8-15.3c0-5-0.1-9.9,0-14.9c0.2-6.7,2.8-9.7,9.4-9.8
			c11.7-0.2,23.5-0.3,35.2-0.1c7.2,0.1,9.5,2.7,9.5,10c0,6.8,0,13.5,0,20.3C123.3,107.1,120.7,109.7,115.5,110.1z"/>
		<path class="st1" d="M96.7,153.2c-5.8,0-10.8,5.1-10.6,10.9c0.2,5.4,5.1,10.3,10.5,10.3c5.7,0.1,10.6-5,10.5-10.9
			C107,157.9,102.3,153.2,96.7,153.2z M97.8,171.2c-0.9,0-1.9-0.1-2.8-0.1c-1.6-2.5-4.6-5.3-4.2-7.5c0.4-2.4,3.9-4.3,6.1-6.5
			c2.1,2.3,5.6,4.4,5.8,6.8C102.8,166.2,99.5,168.8,97.8,171.2z"/>
		<path class="st1" d="M87,24.8c6.1,0,12.2,0,18.3,0c0-0.4,0-0.8,0-1.2c-6.1,0-12.2,0-18.3,0C87,24,87,24.4,87,24.8z"/>
		<path class="st1" d="M76.7,87.1c13,0,25.6,0,39.3,0C111.2,82.4,80.6,82.7,76.7,87.1z"/>
		<path class="st1" d="M77.3,96.3c0,0.7,0,1.3,0,2c12.5,0,25.1,0,37.6,0c0-0.7,0-1.3,0-2C102.4,96.3,89.8,96.3,77.3,96.3z"/>
	</g>
</g>
</svg>
