<?xml version="1.0" encoding="utf-8"?>
<!-- Generator: Adobe Illustrator 21.0.0, SVG Export Plug-In . SVG Version: 6.00 Build 0)  -->
<svg version="1.1" id="Layer_1" xmlns="http://www.w3.org/2000/svg" xmlns:xlink="http://www.w3.org/1999/xlink" x="0px" y="0px"
	 viewBox="0 0 200 200" style="enable-background:new 0 0 200 200;" xml:space="preserve">
<style type="text/css">
	.st0{fill:none;}
	.st1{fill:#010101;}
</style>
<g id="Layer_1_1_">
	<g>
		<path class="st0" d="M23.8,126.9c3.7,11.6,15.5,11.1,23.9,12.6c-3.8-13.1-7.6-26.3-11.4-39.4C29.3,107.2,19.9,114.7,23.8,126.9z"
			/>
		<path class="st0" d="M164.6,92.4c-3.4,1.3-6.4,3.8-10.3,6.3c2.5,1.1,4.3,1.9,6,2.8c-0.6,0.8-1.2,1.5-1.7,2.3
			c-11.2,0.2-20.4-11.3-33.2-7.4c4.7,7.7,12.5,11.7,15.3,20c-6.2-6.3-10.8-1.9-15.6,1.2c-2.7,1.8-5.7,3.1-8.6,4.6
			c-0.4-0.4-0.9-0.8-1.3-1.2c1.1-1.8,2.2-3.5,3.6-5.7c-4.8-2.5-9.1-7.2-15.8-2.1c3,4.7,5.7,9.4,8.8,13.7c0.8,1.2,3.2,2.2,4.4,1.9
			c7.5-2.1,15.3-3.7,22.2-7.3c9.6-4.9,18.4-11.3,27.5-17.1c1.7-1.1,4-2.1,4.7-3.7c1-2.1,1.8-5.5,0.7-7
			C170.4,92.3,166.5,91.7,164.6,92.4z"/>
		<path class="st1" d="M165.5,58.8c-7.6-2.4-15.9-2.5-23.8-3.8c-3.2-0.5-6.8-0.9-9.4-2.5C97.2,31.4,54,47.2,40.7,86
			c-1.2,3.4-3.8,6.4-6.1,9.3c-4.5,5.8-10.3,10.9-13.8,17.3c-5.5,10.1-1.6,20.8,8.8,25.5c5.2,2.4,11.3,2.9,16.8,4.7
			c3.9,1.2,8.3,2.3,11.1,4.8c20.9,19.1,52.6,21.9,75.6,6c2.5-1.7,4.6-4.1,6.9-6.1c-0.5-0.9-1-1.7-1.5-2.6
			c-11.7,9.6-24.8,15.4-39.7,15.3c-15.2-0.1-28.1-5.6-39.2-16.5c12.3-2.1,23.8-4,35.6-6c-1.8,4.8-3.6,9.3-5.3,13.9
			c0.7,0.3,1.4,0.6,2.1,0.9c5-5.7,7.2-12.8,10.3-20.3c-7.1-3.2-13.6-6.2-20.1-9.1c-0.5,0.9-0.9,1.8-1.4,2.6c4.1,2.3,8.2,4.6,14.3,8
			c-12.4,1.8-23,3.3-33.6,5c-4.6,0.7-7.4-1.1-10-4.9c-18.7-28.2-6.9-68.9,24.1-82.6c24.5-10.8,51.4-4.1,68.9,17.1
			c1.2,1.5,2.9,2.6,4.4,3.9c0.5-0.5,1-1,1.5-1.6c-1.4-1.9-2.7-3.9-4.1-5.8c-1.4-1.8-2.8-3.5-4.3-5.3c0.3-0.6,0.7-1.1,1-1.7
			c7.4,1.6,15.1,2.4,22.2,4.9c11.4,4.2,14.3,14.6,9,23.6c-5.7,1.5-10.9,1.5-14.1,4.1c-7.5,6.1-14.6,6.4-22.7,1.9
			c-6.5-3.7-12-1.7-17.5,4.1c3.6,3.9,7,7.8,10.4,11.6c-4,4.7-8,5.1-12.6,1.7c-6.8-5-13.4-4-20.4,1.4c4.2,6.6,8.2,13.3,12.7,19.8
			c0.7,1.1,3,1.7,4.5,1.6c10.5-0.6,20.3-3.2,29.1-9.5c7.2-5.1,14.7-9.7,22.3-14.2c6.5-3.8,12.4-7.7,10.3-16.8
			c-0.2-1.1,0.8-2.5,1.3-3.7C183.9,75,179.5,63.3,165.5,58.8z M47.7,139.6c-8.4-1.6-20.2-1-23.9-12.6c-3.9-12.2,5.5-19.7,12.5-26.7
			C40.1,113.3,43.9,126.5,47.7,139.6z M170.6,100.7c-0.8,1.6-3,2.6-4.7,3.7c-9.1,5.8-17.9,12.2-27.5,17.1
			c-6.8,3.5-14.7,5.1-22.2,7.3c-1.2,0.3-3.6-0.7-4.4-1.9c-3.1-4.3-5.8-9-8.8-13.7c6.6-5.1,11-0.4,15.8,2.1c-1.4,2.2-2.5,4-3.6,5.7
			c0.4,0.4,0.9,0.8,1.3,1.2c2.9-1.5,5.9-2.9,8.6-4.6c4.8-3.1,9.4-7.5,15.6-1.2c-2.8-8.3-10.6-12.3-15.3-20
			c12.7-3.9,21.9,7.6,33.2,7.4c0.6-0.8,1.2-1.5,1.7-2.3c-1.8-0.8-3.5-1.6-6-2.8c3.9-2.5,6.9-5.1,10.3-6.3c2-0.7,5.8-0.1,6.8,1.3
			C172.4,95.2,171.6,98.6,170.6,100.7z"/>
	</g>
</g>
</svg>
