<?xml version="1.0" encoding="utf-8"?>
<!-- Generator: Adobe Illustrator 21.0.0, SVG Export Plug-In . SVG Version: 6.00 Build 0)  -->
<svg version="1.1" id="Layer_1" xmlns="http://www.w3.org/2000/svg" xmlns:xlink="http://www.w3.org/1999/xlink" x="0px" y="0px"
	 viewBox="0 0 200 200" style="enable-background:new 0 0 200 200;" xml:space="preserve">
<style type="text/css">
	.st0{fill:none;}
	.st1{fill:#010101;}
</style>
<g id="Layer_2">
	<g>
		<path class="st0" d="M126.1,137.3c-4.4-3.9-9-4.4-14.3-1.8c-11.7,5.7-15.6,5-23.7-5.1c-11.3-14-19.8-29.7-25.4-46.7
			c-4-12.1-2.4-14.6,7.9-21.9c3.7-2.6,6-7.1,9.2-11c-3.5-8.1-5.8-15.2-9.6-21.5c-2.8-4.7-7.9-6.1-13.7-4.1
			C40.1,30.8,34.8,39,36.1,57c2.2,30.3,14.5,56.5,31.6,80.8c9.7,13.8,21.1,26.1,36.2,34c4.9,2.5,12.1,5.1,16.5,3.3
			c19-7.8,26.2-14.3,9.5-34C128.7,139.7,127.4,138.5,126.1,137.3z"/>
		<path class="st1" d="M126.3,131.1c-7.3-5.5-14.7-2.2-21.5,1.6c-4.2,2.3-7.4,1.5-10.2-1.8c-12.8-15.2-22-32.4-28.2-51.2
			c-2.1-6.2-0.1-10,5.7-12.9c6.3-3.2,11.1-7.8,10.7-15.1c0.1-8.2-4.6-21.7-10-26.7c-2.8-2.6-6.7-5.1-10.4-5.7
			c-11.5-2-29.3,11.3-31,23c-0.8,5.3-1,10.8-0.6,16.2c2,31.2,15.1,58.2,32.8,83.2c11.2,15.9,24.6,29.4,42.8,37.5
			c10.8,4.8,31-3,35.9-13.9c0.9-2,1.5-4.4,1.4-6.5C142.8,146.4,135.6,138,126.3,131.1z M120.4,175.1c-4.4,1.8-11.6-0.7-16.5-3.3
			c-15.1-7.9-26.5-20.2-36.2-34C50.6,113.4,38.3,87.2,36.1,57C34.8,39.1,40,30.9,56.5,25.2c5.8-2,10.9-0.6,13.7,4.1
			c3.7,6.3,6.1,13.4,9.6,21.5c-3.2,4-5.6,8.5-9.2,11c-10.3,7.3-11.9,9.8-7.9,21.9c5.6,17.1,14.1,32.7,25.4,46.7
			c8.1,10.1,12,10.8,23.7,5.1c5.4-2.6,10-2.1,14.3,1.8c1.3,1.2,2.7,2.4,3.8,3.8C146.6,160.8,139.4,167.4,120.4,175.1z"/>
		<path class="st1" d="M139.2,39.9c-8.1-6.1-18.1-9.8-27.4-14.3c-1.1-0.5-2.9,0.6-4.4,0.9c1,1.2,1.9,2.6,3.1,3.5
			c1,0.8,2.5,0.9,3.8,1.4c20,8.2,35.8,21,43.9,41.6c5.9,15,7.4,30.6,4.5,46.6c-0.3,1.5,1,3.3,1.5,4.9c1.2-1.4,3.2-2.7,3.5-4.2
			c1-5.3,1.4-10.7,1.8-13.8C169.2,78.2,160.3,55.9,139.2,39.9z"/>
		<path class="st1" d="M109.4,45.9c-1.8-0.6-4,0.1-5.9,0.2c1.5,1.5,2.8,3.4,4.5,4.6c7.2,4.9,15.5,8.6,21.7,14.5
			c13.6,12.9,16,29.7,13.7,47.5c-0.4,3.4-1,6,3.8,5.2C156.2,87.9,139.5,56.1,109.4,45.9z"/>
		<path class="st1" d="M120.8,109.5c-0.1,1.3,1.4,2.7,2.1,4.1c1-1.3,2.6-2.5,2.9-4c4.1-16.5-7.4-36.7-23.5-41.4
			c-1.7-0.5-3.8,0.2-7.4,0.6c2.3,2,2.9,3,3.8,3.4C115.8,79,122.8,91.6,120.8,109.5z"/>
	</g>
</g>
</svg>
