<?xml version="1.0" encoding="utf-8"?>
<!-- Generator: Adobe Illustrator 21.0.0, SVG Export Plug-In . SVG Version: 6.00 Build 0)  -->
<svg version="1.1" id="Layer_1" xmlns="http://www.w3.org/2000/svg" xmlns:xlink="http://www.w3.org/1999/xlink" x="0px" y="0px"
	 viewBox="0 0 200 200" style="enable-background:new 0 0 200 200;" xml:space="preserve">
<style type="text/css">
	.st0{fill:none;}
	.st1{fill:#010101;}
</style>
<g id="Layer_4">
	<g>
		<path class="st0" d="M113.3,163.6c-0.2,1.6,3.6,5.3,5.6,5.3c2.4,0,4.9-2.9,7.3-4.5c0-1,0-1.9,0-2.9c-2.5-1.5-5.2-4.6-7.3-4.2
			C116.6,157.7,113.7,161.1,113.3,163.6z"/>
		<path class="st0" d="M162.8,46.9c-29.6,0-58.9,0-87.9,0c0,7.5,0,14.4,0,21.7c8.9,0,17.3-0.1,25.6,0c9,0.1,12.4,3.2,12.6,12
			c0.2,9.2,0.1,18.5,0,27.7c0,12.7-2.6,15.3-15.6,15.3c-7.6,0-15.2,0-23,0c0,7.6,0,14.1,0,21.2c29.9,0,59.1,0,88.3,0
			C162.8,111.8,162.8,79.4,162.8,46.9z"/>
		<path class="st0" d="M45.5,105.4c0.1,1.8,2.6,3.4,4,5.1c1.7-1.7,4.3-3.1,4.9-5.1c0.4-1.4-2-3.5-4.1-6.8
			C47.9,101.9,45.5,103.7,45.5,105.4z"/>
		<path class="st0" d="M109.9,85.7c1-12.3-0.8-14.3-12.1-14.3c-16.5,0-33,0-49.5,0c-12.1,0-13.7,1.8-12.3,14.3
			C61,85.7,85.5,85.7,109.9,85.7z M66.5,80.4c0,0.4,0,0.9,0,1.3c-8.4,0-16.7,0-25.1,0c0-0.4,0-0.9,0-1.3
			C49.8,80.4,58.1,80.4,66.5,80.4z"/>
		<path class="st0" d="M109.8,113.7c0.9-7.9,0.3-16.1,0.3-24.4c-25.1,0-49.4,0-74.6,0c0,8.3,0,15.9,0,23.5c0,4.7,2.5,7.3,7,7.3
			c20.1,0.1,40.2,0.3,60.3-0.2C105.3,120,109.5,116.2,109.8,113.7z M50,113.1c-4.7,0.5-7.7-3-7.5-8.2c0.2-4.9,3.2-7.5,7.8-7.4
			c5,0.1,7.5,3.4,7.8,10.7C56.1,109.5,53.2,112.8,50,113.1z M72.7,104.7c10.2,0,20.3,0,30.5,0c0,0.4,0,0.9,0,1.3
			c-10.2,0-20.3,0-30.5,0C72.7,105.6,72.7,105.1,72.7,104.7z"/>
		<path class="st0" d="M146.5,23.2c-18.5,0-37,0-55.6,0c-13.6,0-17.8,5-15.9,19.5c29.4,0,58.5,0,87.5,0
			C164.7,27.8,160.9,23.2,146.5,23.2z M110.7,34c0-0.4,0-0.9,0-1.3c5.6,0,11.3,0,16.9,0c0,0.4,0,0.9,0,1.3C122,34,116.3,34,110.7,34
			z"/>
		<path class="st0" d="M74.8,149c0,7.1-0.4,13.8,0.1,20.5c0.5,6.2,4.7,9.8,10.9,9.9c21.9,0.2,43.8,0.1,65.7,0c5.9,0,10.4-3.2,11.1-9
			c0.8-7,0.2-14.2,0.2-21.3C133.2,149,104.1,149,74.8,149z M119,172.4c-5,0-9.1-4-9.2-8.9c-0.1-5.4,3.9-9.7,9.1-9.8
			c5-0.1,9.6,4.3,9.6,9.3C128.4,168.3,124.2,172.5,119,172.4z"/>
		<path class="st1" d="M166.6,40.7c0-2.3,0-4.5-0.2-6.8c-1-8.9-6.1-14-15.2-14.1c-21.7-0.2-43.4-0.1-65.1,0.1
			c-7.4,0.1-13.1,4.8-14,12.2C71.2,39,71.5,46,71.4,53c-0.1,5.1,0,10.1,0,15.5c-9.8,0-18.6-0.1-27.4,0c-7.7,0.1-11,3.4-11.1,11.2
			c-0.1,9.9-0.1,19.9,0,29.8c0,10.7,2.7,13.6,13.5,13.9c8.1,0.3,16.2,0.1,24.9,0.1c0.2,2.2,0.4,3.3,0.4,4.4
			c-0.1,11.3,0.1,22.6-0.5,33.9c-0.7,14,5.3,20.8,19.3,20.8c18.8,0,37.5,0,56.3,0c15.1,0,19.9-4.8,19.9-19.9
			C166.6,122.1,166.6,81.4,166.6,40.7z M48.4,71.4c16.5,0,33,0,49.5,0c11.3,0,13.1,2,12.1,14.3c-24.4,0-48.9,0-73.9,0
			C34.7,73.2,36.3,71.4,48.4,71.4z M42.5,120.2c-4.5,0-7-2.6-7-7.3c0-7.6,0-15.3,0-23.5c25.2,0,49.5,0,74.6,0
			c0,8.3,0.6,16.4-0.3,24.4c-0.3,2.4-4.5,6.2-7,6.3C82.7,120.5,62.6,120.4,42.5,120.2z M74.6,123.7c7.8,0,15.4,0,23,0
			c13,0,15.6-2.6,15.6-15.3c0-9.2,0.2-18.5,0-27.7c-0.2-8.8-3.6-11.9-12.6-12c-8.3-0.1-16.7,0-25.6,0c0-7.3,0-14.2,0-21.7
			c29.1,0,58.3,0,87.9,0c0,32.5,0,64.9,0,97.9c-29.1,0-58.3,0-88.3,0C74.6,137.8,74.6,131.3,74.6,123.7z M162.6,170.3
			c-0.7,5.8-5.1,8.9-11.1,9c-21.9,0.1-43.8,0.2-65.7,0c-6.2,0-10.4-3.7-10.9-9.9c-0.6-6.7-0.1-13.4-0.1-20.5c29.3,0,58.3,0,88,0
			C162.8,156.1,163.5,163.3,162.6,170.3z M162.6,42.8c-29,0-58.1,0-87.5,0C73.2,28.3,77.4,23.3,91,23.3c18.5,0,37,0,55.6,0
			C160.9,23.2,164.7,27.8,162.6,42.8z"/>
		<path class="st1" d="M118.9,153.7c-5.2,0.1-9.2,4.4-9.1,9.8c0.1,4.9,4.2,8.9,9.2,8.9c5.2,0,9.5-4.2,9.5-9.4
			C128.4,158,123.9,153.6,118.9,153.7z M126.2,164.4c-2.4,1.6-4.9,4.5-7.3,4.5c-2,0-5.8-3.7-5.6-5.3c0.4-2.5,3.2-5.9,5.5-6.3
			c2.1-0.4,4.9,2.7,7.3,4.2C126.2,162.5,126.2,163.4,126.2,164.4z"/>
		<path class="st1" d="M50.3,97.6c-4.5-0.1-7.6,2.5-7.8,7.4c-0.2,5.2,2.8,8.6,7.5,8.2c3.2-0.3,6-3.6,8.1-4.9
			C57.8,101,55.3,97.7,50.3,97.6z M54.4,105.4c-0.6,2-3.1,3.4-4.9,5.1c-1.4-1.7-3.9-3.4-4-5.1c-0.1-1.7,2.3-3.5,4.8-6.7
			C52.4,101.9,54.8,104.1,54.4,105.4z"/>
		<path class="st1" d="M103.2,104.7c-10.2,0-20.3,0-30.5,0c0,0.4,0,0.9,0,1.3c10.2,0,20.3,0,30.5,0
			C103.2,105.6,103.2,105.1,103.2,104.7z"/>
		<path class="st1" d="M110.7,32.7c0,0.4,0,0.9,0,1.3c5.6,0,11.3,0,16.9,0c0-0.4,0-0.9,0-1.3C121.9,32.7,116.3,32.7,110.7,32.7z"/>
		<path class="st1" d="M66.5,81.7c0-0.4,0-0.9,0-1.3c-8.4,0-16.7,0-25.1,0c0,0.4,0,0.9,0,1.3C49.8,81.7,58.2,81.7,66.5,81.7z"/>
	</g>
</g>
</svg>
