<?xml version="1.0" encoding="utf-8"?>
<!-- Generator: Adobe Illustrator 21.0.0, SVG Export Plug-In . SVG Version: 6.00 Build 0)  -->
<svg version="1.1" id="Layer_1" xmlns="http://www.w3.org/2000/svg" xmlns:xlink="http://www.w3.org/1999/xlink" x="0px" y="0px"
	 viewBox="0 0 200 200" style="enable-background:new 0 0 200 200;" xml:space="preserve">
<style type="text/css">
	.st0{fill:none;}
	.st1{fill:#010101;}
</style>
<g id="Layer_6">
	<g>
		<path class="st0" d="M99.5,114.3c5.7-4.5,3-10.4,3.1-15.8c0.1-4.4,0.5-8.8,0.8-13.5c-1.7,0-4.9,0-9.5,0
			C103.7,94.2,91.3,105.7,99.5,114.3z"/>
		<path class="st0" d="M152.9,97.1c-1.8-3.2-4.4-6.4-7.4-8.6c-9.7-7.5-20.6-5.6-27.2,4.5c-5.9,9-11.6,18.2-18.3,28.7
			c-2.2-3-3.5-4.7-4.7-6.5c-5.7-8.9-11.4-17.9-17.2-26.7c-1.1-1.7-3.1-4-4.8-4.1c-9.6-0.6-18.8,0.9-24.1,10.2
			c-7.5,13.1-14.7,26.4-21.5,39.9c-3.3,6.6-4.5,14.4,0.9,20.5c9.6,10.8,22.8,16,34.7,22c6.2-16.8-1.9-25.8-17-31.1
			C51,137,55,129,59.5,121.2c1.2-2,3.6-3.3,5.5-4.9c1.1,2.5,3.1,4.9,3.1,7.4c0.3,15.8,0.1,31.6,0.2,47.5c0,2.4,0.2,4.8,0.3,7.1
			c21.7,0,42.6,0,64.2,0c0-4.8,0-9.3,0-13.8c0-14.2-0.1-28.5,0.1-42.7c0-1.7,1.1-3.8,2.5-4.9c0.6-0.5,3.7,0.5,4.3,1.6
			c5.1,8.7,9.8,17.5,15.2,27.4c-16,5.2-23.1,14.9-17.3,31.8c8.8-5.1,17.5-9.8,25.9-15c12.7-7.8,15.3-17.2,8.5-30.4
			C165.9,120.3,159.5,108.6,152.9,97.1z"/>
		<path class="st0" d="M99.8,69.8c12.7,0,23.5-10.6,23.5-23c0-12.5-10.5-23.2-23.1-23.4c-12.9-0.2-23,9.9-23.1,23
			C76.9,59.5,87,69.8,99.8,69.8z"/>
		<path class="st0" d="M136.5,120.9c0,11.3,0,20.7,0,31.1c4.8-3,8.6-5.4,12.6-8C145,136.6,141.1,129.4,136.5,120.9z"/>
		<path class="st0" d="M63.8,151.6c0-10.1,0-19.4,0-28.6c-0.4-0.1-0.7-0.3-1.1-0.4c-3.6,7-7.2,14-11.1,21.5
			C55.7,146.5,59.4,148.8,63.8,151.6z"/>
		<path class="st1" d="M178.9,141.3c-1.1-5.2-3.2-10.3-5.6-15.1c-4.6-9.1-10.1-17.6-14.5-26.8c-6.5-13.7-16.7-20.5-31.9-18.5
			c-2.8,0.4-6.1,2.4-7.8,4.6c-4.1,5.2-7.5,11-11.1,16.6c-0.8-0.3-1.5-0.5-2.3-0.8c1-4.5,2-9,3.1-13.5c0.9-4-0.2-6.7-4.6-7.2
			c-2.2-0.2-4.5-0.2-6.8-0.1c-5.3,0.3-6.8,3.1-5.2,8.1c1.3,4,1.6,8.2,2.4,12.4c-0.8,0.1-1.6,0.3-2.5,0.4
			c-3.7-5.6-7.4-11.3-11.2-16.8c-1-1.4-2.1-3.3-3.5-3.9c-9.1-3.7-25,1.3-30.2,10.1c-8,13.8-15.7,27.9-22.7,42.3
			c-6.1,12.7-2.4,23.9,9.5,31.6c8,5.1,16.1,10,24.6,14.2c4.2,2.1,9.4,3.2,14.1,3.3c18.3,0.4,36.6,0.4,54.9,0
			c5.2-0.1,10.8-1.4,15.4-3.6c8.5-4.1,16.6-9,24.7-14C176.5,159.4,181.1,151.7,178.9,141.3z M93.9,85c4.6,0,7.8,0,9.5,0
			c-0.3,4.7-0.6,9.1-0.8,13.5c-0.2,5.4,2.5,11.3-3.1,15.8C91.3,105.7,103.7,94.2,93.9,85z M163.5,162.5c-8.4,5.2-17.1,9.9-25.9,15
			c-5.8-16.9,1.3-26.6,17.3-31.8c-5.4-9.9-10.2-18.8-15.2-27.4c-0.6-1.1-3.7-2.1-4.3-1.6c-1.3,1.1-2.4,3.2-2.5,4.9
			c-0.2,14.2-0.1,28.5-0.1,42.7c0,4.5,0,8.9,0,13.8c-21.5,0-42.5,0-64.2,0c-0.1-2.3-0.3-4.7-0.3-7.1c0-15.8,0.1-31.6-0.2-47.5
			c0-2.5-2-4.9-3.1-7.4c-1.9,1.6-4.3,2.9-5.5,4.9c-4.4,7.8-8.5,15.8-13.2,24.7c15.1,5.3,23.2,14.3,17,31.1
			c-11.9-6-25.1-11.2-34.7-22c-5.4-6.1-4.2-13.8-0.9-20.5c6.8-13.5,14-26.8,21.5-39.9c5.3-9.3,14.5-10.8,24.1-10.2
			c1.7,0.1,3.7,2.4,4.8,4.1c5.9,8.8,11.5,17.8,17.2,26.7c1.2,1.8,2.5,3.5,4.7,6.5c6.7-10.5,12.4-19.6,18.3-28.7
			c6.5-10,17.5-12,27.2-4.5c2.9,2.3,5.5,5.4,7.4,8.6c6.6,11.5,13,23.2,19.1,35C178.8,145.3,176.2,154.7,163.5,162.5z M136.5,152
			c0-10.4,0-19.8,0-31.1c4.7,8.6,8.5,15.7,12.6,23.2C145,146.6,141.3,149,136.5,152z M63.8,122.9c0,9.2,0,18.5,0,28.6
			c-4.4-2.7-8.1-5-12.2-7.5c3.8-7.5,7.5-14.5,11.1-21.5C63.1,122.7,63.5,122.8,63.8,122.9z"/>
		<path class="st1" d="M100.2,73.8c14.2-0.1,26.9-12.7,26.9-26.8c0-14.5-12.6-27.3-27.1-27.4c-14.7-0.1-26.9,12.3-26.9,27.3
			C73.1,62,85.1,73.9,100.2,73.8z M100.1,23.5c12.6,0.2,23.2,10.8,23.1,23.4c0,12.4-10.8,23-23.5,23S76.8,59.5,76.9,46.6
			C77.1,33.4,87.3,23.3,100.1,23.5z"/>
	</g>
</g>
</svg>
