<svg xmlns="http://www.w3.org/2000/svg"  viewBox="0 0 128 128" width="64px" height="64px"><path fill="#fff" d="M55,41v0.8c-3.5,0.2-6.9,1.5-9.7,3.9L22.1,66L6,66v41h121V41H55z"/><path fill="#444b54" d="M93.9,57.2c-1.1-2.7-3.2-4.9-5.9-6L63.6,40.4c-6.7-3-14.7-1.8-20.2,3.1L21,63c0,0,0,0,0,0H6c-1.7,0-3,1.3-3,3 v41c0,1.7,1.3,3,3,3h15h24c1.7,0,3-1.3,3-3s-1.3-3-3-3H24V68.4L47.3,48c3.8-3.3,9.2-4.1,13.8-2.1l24.5,10.9 c1.2,0.5,2.2,1.5,2.7,2.7c0.5,1.2,0.5,2.6,0,3.8c-0.5,1.2-1.5,2.2-2.7,2.7c-1.2,0.5-2.6,0.5-3.8,0l-18.5-7.9 c-0.8-0.3-1.7-0.3-2.5,0c-0.8,0.4-1.4,1-1.6,1.9L59,60.6C56.3,69.7,48.8,76.4,39.5,78c-1.6,0.3-2.7,1.8-2.4,3.5 c0.3,1.5,1.5,2.5,3,2.5c0.2,0,0.3,0,0.5,0c10.7-1.9,19.4-9.1,23.3-19.1l15.5,6.6c2.7,1.1,5.7,1.2,8.4,0.1c2.7-1.1,4.9-3.2,6-5.9 C95,63,95,60,93.9,57.2z M9,69h9v35H9V69z"/><path fill="#444b54" d="M124 110H65c-7.2 0-13-5.8-13-13v-7c0-1.7 1.3-3 3-3s3 1.3 3 3v7c0 3.9 3.1 7 7 7h59c1.7 0 3 1.3 3 3S125.7 110 124 110zM124 44H94c-1.7 0-3-1.3-3-3s1.3-3 3-3h30c1.7 0 3 1.3 3 3S125.7 44 124 44z"/><path fill="#71c2ff" d="M111 58A16 16 0 1 0 111 90A16 16 0 1 0 111 58Z"/></svg>