<svg xmlns="http://www.w3.org/2000/svg" width="32" height="32" viewBox="0 0 8.467 8.467" id="donation"><g fill="#3b3c3d" transform="translate(38.563 -428.324) scale(.26458)"><path d="m -129.75,1628.2887 a 4.2503653,4.249804 0 0 0 -4.25,4.2499 4.2503653,4.249804 0 0 0 4.25,4.2498 4.2503653,4.249804 0 0 0 4.25,-4.2498 4.2503653,4.249804 0 0 0 -4.25,-4.2499 z m 0,1.7066 a 2.5499992,2.543969 0 0 1 2.55,2.5433 2.5499992,2.543969 0 0 1 -2.55,2.5432 2.5499992,2.543969 0 0 1 -2.55,-2.5432 2.5499992,2.543969 0 0 1 2.55,-2.5433 z"></path><path fill-rule="evenodd" d="m -137.75045,1641.8625 -4.99955,6.9996 h 26 l -4.99954,-6.9996 z m 5.50751,3.0004 h 4.98588 a 0.50020045,0.50044596 0 1 1 0,1.0008 h -4.98588 a 0.50020045,0.50044596 0 1 1 0,-1.0008 z"></path><path fill-rule="evenodd" d="m -120.02163,1629.7283 c -0.96068,0.1206 -1.93432,-0.075 -2.7751,-0.5571 l -3.28492,-1.8835 h -3.90861 c -0.55771,0 -1.00316,-0.4405 -1.00999,-1.0025 v -0.41 c -0.01,-0.5517 0.42757,-0.9409 0.97273,-0.9908 l 4.48892,-0.4103 -3.98834,-0.1557 c 0,0 -5.01268,1.6147 -7.43915,2.4848 v 0 0 c -0.4828,0.1935 -1.02254,-0.011 -1.2551,-0.4806 v -0.011 c -0.24883,-0.5123 -0.0352,-1.1161 0.48441,-1.3478 l 7.36223,-3.2841 c 1.88612,-0.8414 3.99596,-1.0394 6.0051,-0.565 l 7.54458,1.7813 v 6.4271 z" color="#000" font-family="sans-serif" font-weight="400" overflow="visible" style="line-height:normal;text-indent:0;text-align:start;text-decoration-line:none;text-decoration-style:solid;text-decoration-color:#000;text-transform:none;isolation:auto;mix-blend-mode:normal"></path></g></svg>